<mxfile host="app.diagrams.net" agent="Mozilla/5.0 (Windows NT 10.0; Win64; x64) AppleWebKit/537.36 (KHTML, like Gecko) Chrome/138.0.0.0 Safari/537.36" version="28.2.0">
  <diagram name="Page-1" id="0AXt0T0ywYt2Ji5lUYXB">
    <mxGraphModel dx="1186" dy="755" grid="1" gridSize="10" guides="1" tooltips="1" connect="1" arrows="1" fold="1" page="1" pageScale="1" pageWidth="827" pageHeight="1169" math="0" shadow="0">
      <root>
        <mxCell id="0" />
        <mxCell id="1" parent="0" />
        <mxCell id="yIPxloN-PB5fRy6Yx8pX-1" value="" style="swimlane;startSize=0;" vertex="1" parent="1">
          <mxGeometry x="160" y="30" width="640" height="760" as="geometry" />
        </mxCell>
        <mxCell id="yIPxloN-PB5fRy6Yx8pX-2" value="&lt;font style=&quot;font-size: 18px;&quot;&gt;TestEnLigne&amp;nbsp;&lt;/font&gt;" style="text;html=1;align=center;verticalAlign=middle;resizable=0;points=[];autosize=1;strokeColor=none;fillColor=none;" vertex="1" parent="yIPxloN-PB5fRy6Yx8pX-1">
          <mxGeometry x="189" y="5" width="130" height="40" as="geometry" />
        </mxCell>
        <mxCell id="yIPxloN-PB5fRy6Yx8pX-6" value="&lt;font style=&quot;font-size: 14px;&quot;&gt;passer un test&lt;/font&gt;" style="ellipse;whiteSpace=wrap;html=1;" vertex="1" parent="yIPxloN-PB5fRy6Yx8pX-1">
          <mxGeometry x="120" y="80" width="200" height="80" as="geometry" />
        </mxCell>
        <mxCell id="yIPxloN-PB5fRy6Yx8pX-8" value="&lt;font style=&quot;font-size: 14px;&quot;&gt;consulter les scores&lt;/font&gt;" style="ellipse;whiteSpace=wrap;html=1;" vertex="1" parent="yIPxloN-PB5fRy6Yx8pX-1">
          <mxGeometry x="120" y="190" width="200" height="80" as="geometry" />
        </mxCell>
        <mxCell id="yIPxloN-PB5fRy6Yx8pX-11" value="&lt;font style=&quot;font-size: 14px;&quot;&gt;créer test&amp;nbsp;&lt;/font&gt;" style="ellipse;whiteSpace=wrap;html=1;" vertex="1" parent="yIPxloN-PB5fRy6Yx8pX-1">
          <mxGeometry x="119" y="320" width="200" height="80" as="geometry" />
        </mxCell>
        <mxCell id="yIPxloN-PB5fRy6Yx8pX-12" value="&lt;font style=&quot;font-size: 14px;&quot;&gt;poster test&lt;/font&gt;" style="ellipse;whiteSpace=wrap;html=1;" vertex="1" parent="yIPxloN-PB5fRy6Yx8pX-1">
          <mxGeometry x="120" y="440" width="200" height="80" as="geometry" />
        </mxCell>
        <mxCell id="yIPxloN-PB5fRy6Yx8pX-16" value="&lt;font style=&quot;font-size: 14px;&quot;&gt;s&#39;authentifier&amp;nbsp;&lt;/font&gt;" style="ellipse;whiteSpace=wrap;html=1;" vertex="1" parent="yIPxloN-PB5fRy6Yx8pX-1">
          <mxGeometry x="440" y="240" width="160" height="80" as="geometry" />
        </mxCell>
        <mxCell id="yIPxloN-PB5fRy6Yx8pX-19" value="&lt;font style=&quot;font-size: 14px;&quot;&gt;gerer&amp;nbsp;des comptes&lt;/font&gt;&lt;div&gt;&lt;font size=&quot;3&quot;&gt;&amp;nbsp;des utilisateurs&lt;/font&gt;&lt;/div&gt;" style="ellipse;whiteSpace=wrap;html=1;" vertex="1" parent="yIPxloN-PB5fRy6Yx8pX-1">
          <mxGeometry x="119" y="555" width="200" height="80" as="geometry" />
        </mxCell>
        <mxCell id="yIPxloN-PB5fRy6Yx8pX-21" value="" style="endArrow=block;dashed=1;endFill=0;endSize=12;html=1;rounded=0;exitX=1;exitY=0.5;exitDx=0;exitDy=0;entryX=0.5;entryY=0;entryDx=0;entryDy=0;" edge="1" parent="yIPxloN-PB5fRy6Yx8pX-1" source="yIPxloN-PB5fRy6Yx8pX-6" target="yIPxloN-PB5fRy6Yx8pX-16">
          <mxGeometry width="160" relative="1" as="geometry">
            <mxPoint x="170" y="360" as="sourcePoint" />
            <mxPoint x="330" y="360" as="targetPoint" />
          </mxGeometry>
        </mxCell>
        <mxCell id="yIPxloN-PB5fRy6Yx8pX-23" value="" style="endArrow=block;dashed=1;endFill=0;endSize=12;html=1;rounded=0;entryX=0;entryY=0.5;entryDx=0;entryDy=0;" edge="1" parent="yIPxloN-PB5fRy6Yx8pX-1" target="yIPxloN-PB5fRy6Yx8pX-16">
          <mxGeometry width="160" relative="1" as="geometry">
            <mxPoint x="320" y="229.5" as="sourcePoint" />
            <mxPoint x="480" y="229.5" as="targetPoint" />
          </mxGeometry>
        </mxCell>
        <mxCell id="yIPxloN-PB5fRy6Yx8pX-22" value="" style="endArrow=block;dashed=1;endFill=0;endSize=12;html=1;rounded=0;entryX=0.194;entryY=0.863;entryDx=0;entryDy=0;entryPerimeter=0;" edge="1" parent="yIPxloN-PB5fRy6Yx8pX-1" target="yIPxloN-PB5fRy6Yx8pX-16">
          <mxGeometry width="160" relative="1" as="geometry">
            <mxPoint x="320" y="359.5" as="sourcePoint" />
            <mxPoint x="480" y="359.5" as="targetPoint" />
          </mxGeometry>
        </mxCell>
        <mxCell id="yIPxloN-PB5fRy6Yx8pX-24" value="" style="endArrow=block;dashed=1;endFill=0;endSize=12;html=1;rounded=0;entryX=0.5;entryY=1;entryDx=0;entryDy=0;exitX=1;exitY=0.5;exitDx=0;exitDy=0;exitPerimeter=0;" edge="1" parent="yIPxloN-PB5fRy6Yx8pX-1" source="yIPxloN-PB5fRy6Yx8pX-12" target="yIPxloN-PB5fRy6Yx8pX-16">
          <mxGeometry width="160" relative="1" as="geometry">
            <mxPoint x="330" y="479.5" as="sourcePoint" />
            <mxPoint x="490" y="479.5" as="targetPoint" />
          </mxGeometry>
        </mxCell>
        <mxCell id="yIPxloN-PB5fRy6Yx8pX-25" value="&lt;font style=&quot;font-size: 14px;&quot;&gt;consulter les scores de&lt;/font&gt;&lt;div&gt;&lt;font style=&quot;font-size: 14px;&quot;&gt;&amp;nbsp;tous les étudiants&lt;/font&gt;&lt;/div&gt;" style="ellipse;whiteSpace=wrap;html=1;" vertex="1" parent="yIPxloN-PB5fRy6Yx8pX-1">
          <mxGeometry x="120" y="660" width="200" height="80" as="geometry" />
        </mxCell>
        <mxCell id="yIPxloN-PB5fRy6Yx8pX-28" value="" style="endArrow=block;dashed=1;endFill=0;endSize=12;html=1;rounded=0;exitX=1.005;exitY=0.388;exitDx=0;exitDy=0;exitPerimeter=0;entryX=0.681;entryY=1.025;entryDx=0;entryDy=0;entryPerimeter=0;" edge="1" parent="yIPxloN-PB5fRy6Yx8pX-1" source="yIPxloN-PB5fRy6Yx8pX-19" target="yIPxloN-PB5fRy6Yx8pX-16">
          <mxGeometry width="160" relative="1" as="geometry">
            <mxPoint x="170" y="380" as="sourcePoint" />
            <mxPoint x="330" y="380" as="targetPoint" />
          </mxGeometry>
        </mxCell>
        <mxCell id="yIPxloN-PB5fRy6Yx8pX-29" value="" style="endArrow=block;dashed=1;endFill=0;endSize=12;html=1;rounded=0;exitX=1;exitY=0.5;exitDx=0;exitDy=0;entryX=1;entryY=1;entryDx=0;entryDy=0;" edge="1" parent="yIPxloN-PB5fRy6Yx8pX-1" source="yIPxloN-PB5fRy6Yx8pX-25" target="yIPxloN-PB5fRy6Yx8pX-16">
          <mxGeometry width="160" relative="1" as="geometry">
            <mxPoint x="170" y="380" as="sourcePoint" />
            <mxPoint x="330" y="380" as="targetPoint" />
          </mxGeometry>
        </mxCell>
        <mxCell id="yIPxloN-PB5fRy6Yx8pX-4" value="&lt;font style=&quot;font-size: 14px;&quot;&gt;étudiant &lt;/font&gt;" style="shape=umlActor;verticalLabelPosition=bottom;verticalAlign=top;html=1;outlineConnect=0;" vertex="1" parent="1">
          <mxGeometry x="60" y="160" width="40" height="80" as="geometry" />
        </mxCell>
        <mxCell id="yIPxloN-PB5fRy6Yx8pX-7" value="" style="endArrow=none;html=1;rounded=0;entryX=0;entryY=0.5;entryDx=0;entryDy=0;" edge="1" parent="1" source="yIPxloN-PB5fRy6Yx8pX-4" target="yIPxloN-PB5fRy6Yx8pX-6">
          <mxGeometry width="50" height="50" relative="1" as="geometry">
            <mxPoint x="390" y="420" as="sourcePoint" />
            <mxPoint x="440" y="370" as="targetPoint" />
          </mxGeometry>
        </mxCell>
        <mxCell id="yIPxloN-PB5fRy6Yx8pX-9" value="" style="endArrow=none;html=1;rounded=0;entryX=0;entryY=0.5;entryDx=0;entryDy=0;" edge="1" parent="1" source="yIPxloN-PB5fRy6Yx8pX-4" target="yIPxloN-PB5fRy6Yx8pX-8">
          <mxGeometry width="50" height="50" relative="1" as="geometry">
            <mxPoint x="390" y="420" as="sourcePoint" />
            <mxPoint x="440" y="370" as="targetPoint" />
          </mxGeometry>
        </mxCell>
        <mxCell id="yIPxloN-PB5fRy6Yx8pX-10" value="&lt;font style=&quot;font-size: 14px;&quot;&gt;professeurs &lt;/font&gt;" style="shape=umlActor;verticalLabelPosition=bottom;verticalAlign=top;html=1;outlineConnect=0;" vertex="1" parent="1">
          <mxGeometry x="60" y="440" width="35" height="80" as="geometry" />
        </mxCell>
        <mxCell id="yIPxloN-PB5fRy6Yx8pX-13" value="" style="endArrow=none;html=1;rounded=0;entryX=0;entryY=0.5;entryDx=0;entryDy=0;" edge="1" parent="1" source="yIPxloN-PB5fRy6Yx8pX-10" target="yIPxloN-PB5fRy6Yx8pX-11">
          <mxGeometry width="50" height="50" relative="1" as="geometry">
            <mxPoint x="390" y="430" as="sourcePoint" />
            <mxPoint x="440" y="380" as="targetPoint" />
          </mxGeometry>
        </mxCell>
        <mxCell id="yIPxloN-PB5fRy6Yx8pX-14" value="" style="endArrow=none;html=1;rounded=0;entryX=0;entryY=0.5;entryDx=0;entryDy=0;" edge="1" parent="1" source="yIPxloN-PB5fRy6Yx8pX-10" target="yIPxloN-PB5fRy6Yx8pX-12">
          <mxGeometry width="50" height="50" relative="1" as="geometry">
            <mxPoint x="390" y="430" as="sourcePoint" />
            <mxPoint x="440" y="380" as="targetPoint" />
          </mxGeometry>
        </mxCell>
        <mxCell id="yIPxloN-PB5fRy6Yx8pX-15" value="&lt;font style=&quot;font-size: 14px;&quot;&gt;GestNotes&lt;/font&gt;" style="shape=umlActor;verticalLabelPosition=bottom;verticalAlign=top;html=1;outlineConnect=0;" vertex="1" parent="1">
          <mxGeometry x="910" y="300" width="40" height="80" as="geometry" />
        </mxCell>
        <mxCell id="yIPxloN-PB5fRy6Yx8pX-18" value="&lt;font style=&quot;font-size: 14px;&quot;&gt;administrateur &lt;/font&gt;" style="shape=umlActor;verticalLabelPosition=bottom;verticalAlign=top;html=1;outlineConnect=0;" vertex="1" parent="1">
          <mxGeometry x="60" y="610" width="40" height="70" as="geometry" />
        </mxCell>
        <mxCell id="yIPxloN-PB5fRy6Yx8pX-20" value="" style="endArrow=none;html=1;rounded=0;entryX=0;entryY=0.5;entryDx=0;entryDy=0;" edge="1" parent="1" source="yIPxloN-PB5fRy6Yx8pX-18" target="yIPxloN-PB5fRy6Yx8pX-19">
          <mxGeometry width="50" height="50" relative="1" as="geometry">
            <mxPoint x="390" y="430" as="sourcePoint" />
            <mxPoint x="440" y="380" as="targetPoint" />
          </mxGeometry>
        </mxCell>
        <mxCell id="yIPxloN-PB5fRy6Yx8pX-26" value="" style="endArrow=none;html=1;rounded=0;entryX=0;entryY=0.5;entryDx=0;entryDy=0;" edge="1" parent="1" source="yIPxloN-PB5fRy6Yx8pX-18" target="yIPxloN-PB5fRy6Yx8pX-25">
          <mxGeometry width="50" height="50" relative="1" as="geometry">
            <mxPoint x="390" y="430" as="sourcePoint" />
            <mxPoint x="440" y="380" as="targetPoint" />
          </mxGeometry>
        </mxCell>
      </root>
    </mxGraphModel>
  </diagram>
</mxfile>
